<svg xmlns="http://www.w3.org/2000/svg" xmlns:xlink="http://www.w3.org/1999/xlink" width="1366" zoomAndPan="magnify" viewBox="0 0 1024.5 576" height="768" preserveAspectRatio="xMidYMid meet" version="1.0"><defs><clipPath id="032955c7d3"><path d="M 0 0.140625 L 1024 0.140625 L 1024 575.859375 L 0 575.859375 Z M 0 0.140625 " clip-rule="nonzero"/></clipPath><clipPath id="3968e61bb2"><path d="M 0 0.140625 L 958 0.140625 L 958 575.859375 L 0 575.859375 Z M 0 0.140625 " clip-rule="nonzero"/></clipPath><clipPath id="8e4bc22525"><path d="M 1024.5 529.335938 L -55.859375 709.175781 L -200.53125 -159.9375 L 879.824219 -339.777344 Z M 1024.5 529.335938 " clip-rule="nonzero"/></clipPath><clipPath id="135f6d9624"><path d="M 484.320312 619.257812 C 782.652344 569.59375 992.113281 334.78125 952.160156 94.78125 C 912.210938 -145.21875 637.976562 -299.515625 339.644531 -249.855469 C 41.3125 -200.195312 -168.144531 34.621094 -128.195312 274.621094 C -88.246094 514.617188 185.988281 668.917969 484.320312 619.257812 " clip-rule="nonzero"/></clipPath><clipPath id="501f062e42"><path d="M 0 0.140625 L 744 0.140625 L 744 481 L 0 481 Z M 0 0.140625 " clip-rule="nonzero"/></clipPath><clipPath id="cb896c517c"><path d="M 796.699219 396.457031 L -114.738281 548.179688 L -228.128906 -133.015625 L 683.308594 -284.734375 Z M 796.699219 396.457031 " clip-rule="nonzero"/></clipPath><clipPath id="5fbfcbc1cf"><path d="M 340.980469 472.320312 C 592.667969 430.421875 771.316406 243.96875 740.003906 55.863281 C 708.691406 -132.246094 479.273438 -250.773438 227.589844 -208.875 C -24.097656 -166.980469 -202.746094 19.476562 -171.433594 207.582031 C -140.121094 395.6875 89.296875 514.214844 340.980469 472.320312 " clip-rule="nonzero"/></clipPath></defs><g clip-path="url(#032955c7d3)"><path fill="#ffffff" d="M 0 0.140625 L 1024.5 0.140625 L 1024.5 583.640625 L 0 583.640625 Z M 0 0.140625 " fill-opacity="1" fill-rule="nonzero"/><path fill="#ffffff" d="M 0 0.140625 L 1024.5 0.140625 L 1024.5 576.140625 L 0 576.140625 Z M 0 0.140625 " fill-opacity="1" fill-rule="nonzero"/><path fill="#2088c4" d="M 0 0.140625 L 1024.5 0.140625 L 1024.5 576.140625 L 0 576.140625 Z M 0 0.140625 " fill-opacity="1" fill-rule="nonzero"/></g><g clip-path="url(#3968e61bb2)"><g clip-path="url(#8e4bc22525)"><g clip-path="url(#135f6d9624)"><path fill="#329fd6" d="M 1024.5 529.335938 L -55.859375 709.175781 L -200.53125 -159.9375 L 879.824219 -339.777344 Z M 1024.5 529.335938 " fill-opacity="1" fill-rule="nonzero"/></g></g></g><g clip-path="url(#501f062e42)"><g clip-path="url(#cb896c517c)"><g clip-path="url(#5fbfcbc1cf)"><path fill="#54b5e6" d="M 796.699219 396.457031 L -114.738281 548.179688 L -228.128906 -133.015625 L 683.308594 -284.734375 Z M 796.699219 396.457031 " fill-opacity="1" fill-rule="nonzero"/></g></g></g></svg>